# xmcd
#
# Track frame offsets:
#	150
#	12399
#	31346
#	47034
#	59030
#	71344
#	90402
#	104525
#	114963
#	126057
#	142051
#	164104
#	176187
#	189693
#	200607
#
# Disc length: 2918 seconds
# Revision: 0
# Processed by: cddbd v1.5.2PL0 Copyright (c) Steve Scherf et al.
# Submitted via: dBpowerAMP V12.0
#
DISCID=e00b640f
DTITLE=Various Artist - Prime Cuts of Bluegrass Volume 94
DYEAR=2008
DGENRE=Bluegrass
TTITLE0=Randall Collins - Kenny and Amanda Smith Band
TTITLE1=I Miss The Sound of Rain - Davidson Brothers
TTITLE2=Sad Winds Sigh - The Grascals
TTITLE3=Red Dog in the Morning - Tim O'Brien
TTITLE4=Leaving Baker County - Junior Sisk and Rambler's Choice
TTITLE5=Echoes of Love - Beth Stevens
TTITLE6=Smiling Faces - Lorraine Jordan and Carolina Road
TTITLE7=Two Lane Highway - Michelle Cupit
TTITLE8=If You Don't Let Go - Palmer Divide
TTITLE9=A Better Way - The Hagar's Mountain Boys
TTITLE10=Wherever You Are - The Franz Family
TTITLE11=Election Year - Dennis Coats
TTITLE12=The Old White Flag - Triumphant Quartet
TTITLE13=Go better - Bobby Maynard
TTITLE14=Please Play The Jukebox - Louie Setzer and The Appalacian Mountain Boys
EXTD=
EXTT0=
EXTT1=
EXTT2=
EXTT3=
EXTT4=
EXTT5=
EXTT6=
EXTT7=
EXTT8=
EXTT9=
EXTT10=
EXTT11=
EXTT12=
EXTT13=
EXTT14=
PLAYORDER=
